<svg width="45" height="45" viewBox="0 0 45 45" fill="none" xmlns="http://www.w3.org/2000/svg">
<path d="M17.9062 21.1384C18.2946 20.8571 18.4821 20.3929 18.4821 19.7545C18.4955 19.4509 18.433 19.1518 18.2991 18.8795C18.1786 18.6607 18 18.4777 17.7813 18.3482C17.5544 18.2107 17.3025 18.1196 17.0402 18.0804C16.7545 18.0268 16.4643 18 16.1786 18.0045H13.0402V21.5625H16.4375C17.0223 21.567 17.5179 21.4241 17.9062 21.1384ZM18.433 24.3527C17.9955 24.0179 17.4107 23.8527 16.683 23.8527H13.0313V28.0491H16.6116C16.9464 28.0491 17.2545 28.0179 17.5536 27.9554C17.8366 27.9 18.1063 27.7909 18.3482 27.6339C18.5759 27.4866 18.7589 27.2857 18.8973 27.0268C19.0313 26.7679 19.0982 26.4375 19.0982 26.0402C19.0982 25.25 18.875 24.692 18.433 24.3527ZM22 3C10.9554 3 2 11.9554 2 23C2 34.0446 10.9554 43 22 43C33.0446 43 42 34.0446 42 23C42 11.9554 33.0446 3 22 3ZM25.8616 15.808H32.0402V17.3125H25.8616V15.808ZM22 28.2143C21.711 28.7629 21.2983 29.2367 20.7946 29.5982C20.2679 29.9643 19.683 30.2321 19.0625 30.3884C18.4133 30.5624 17.7435 30.648 17.0714 30.6429H9.67857V15.4152H16.8661C17.5938 15.4152 18.2545 15.4821 18.8571 15.6071C19.4554 15.7321 19.9643 15.9464 20.3929 16.2366C20.817 16.5268 21.1518 16.9152 21.3884 17.3973C21.6205 17.875 21.7411 18.4732 21.7411 19.183C21.7411 19.9509 21.567 20.5848 21.2188 21.0982C20.8661 21.6116 20.3571 22.0268 19.6652 22.3527C20.6071 22.6205 21.2991 23.0982 21.7545 23.7679C22.2188 24.4464 22.4464 25.2589 22.4464 26.2143C22.4464 26.9911 22.2991 27.6563 22 28.2143ZM34.4464 25.8571H26.4821C26.4821 26.7232 26.7813 27.5536 27.2321 28C27.6875 28.442 28.3393 28.6652 29.192 28.6652C29.808 28.6652 30.3304 28.5089 30.7768 28.2009C31.2187 27.8929 31.4866 27.567 31.5848 27.2277H34.2545C33.8259 28.5536 33.1741 29.5 32.2902 30.0714C31.4152 30.6429 30.3438 30.9286 29.0982 30.9286C28.2277 30.9286 27.4464 30.7857 26.7455 30.5134C26.0714 30.25 25.4643 29.8482 24.9643 29.3304C24.4713 28.7985 24.0902 28.1731 23.8437 27.4911C23.5714 26.7366 23.4375 25.942 23.4464 25.1429C23.4464 24.317 23.5848 23.5491 23.8527 22.8348C24.3661 21.4464 25.433 20.3348 26.7946 19.7589C27.5223 19.4554 28.3036 19.3036 29.0938 19.3125C30.0313 19.3125 30.8438 19.4911 31.5491 19.8571C32.2282 20.2067 32.8177 20.7077 33.2723 21.3214C33.7232 21.933 34.0402 22.6295 34.2411 23.4152C34.433 24.1875 34.5 25 34.4464 25.8571ZM29 21.5893C28.5179 21.5893 28.1116 21.6741 27.7991 21.8393C27.4866 22.0045 27.2277 22.2098 27.0313 22.4464C26.8442 22.6749 26.7059 22.9392 26.625 23.2232C26.5536 23.4598 26.5045 23.7009 26.4866 23.9464H31.4196C31.3482 23.1741 31.0804 22.6027 30.7232 22.2009C30.3482 21.8036 29.7455 21.5893 29 21.5893Z" fill="url(#paint0_linear_48_71)"/>
<defs>
<linearGradient id="paint0_linear_48_71" x1="41.7276" y1="13.3656" x2="5.02509" y2="32.6344" gradientUnits="userSpaceOnUse">
<stop stop-color="#492BFF"/>
<stop offset="1" stop-color="#FA12E3"/>
</linearGradient>
</defs>
</svg>
