<svg width="45" height="45" viewBox="0 0 45 45" fill="none" xmlns="http://www.w3.org/2000/svg">
<path d="M21.995 16.3305C18.3225 16.3305 15.3255 19.3275 15.3255 23C15.3255 26.6725 18.3225 29.6695 21.995 29.6695C25.6675 29.6695 28.6645 26.6725 28.6645 23C28.6645 19.3275 25.6675 16.3305 21.995 16.3305ZM41.9985 23C41.9985 20.2381 42.0235 17.5013 41.8684 14.7444C41.7133 11.5423 40.9828 8.70034 38.6412 6.35876C36.2947 4.01217 33.4577 3.28668 30.2556 3.13158C27.4937 2.97647 24.7569 3.00149 22 3.00149C19.2381 3.00149 16.5013 2.97647 13.7444 3.13158C10.5423 3.28668 7.70034 4.01717 5.35876 6.35876C3.01217 8.70534 2.28668 11.5423 2.13158 14.7444C1.97647 17.5063 2.00149 20.2431 2.00149 23C2.00149 25.7569 1.97647 28.4987 2.13158 31.2556C2.28668 34.4577 3.01717 37.2997 5.35876 39.6412C7.70534 41.9878 10.5423 42.7133 13.7444 42.8684C16.5063 43.0235 19.2431 42.9985 22 42.9985C24.7619 42.9985 27.4987 43.0235 30.2556 42.8684C33.4577 42.7133 36.2997 41.9828 38.6412 39.6412C40.9878 37.2947 41.7133 34.4577 41.8684 31.2556C42.0285 28.4987 41.9985 25.7619 41.9985 23ZM21.995 33.2619C16.3162 33.2619 11.7331 28.6788 11.7331 23C11.7331 17.3212 16.3162 12.7381 21.995 12.7381C27.6738 12.7381 32.2569 17.3212 32.2569 23C32.2569 28.6788 27.6738 33.2619 21.995 33.2619ZM32.6772 14.7144C31.3513 14.7144 30.2806 13.6437 30.2806 12.3178C30.2806 10.9919 31.3513 9.92116 32.6772 9.92116C34.0031 9.92116 35.0738 10.9919 35.0738 12.3178C35.0742 12.6326 35.0125 12.9444 34.8922 13.2354C34.7719 13.5263 34.5954 13.7907 34.3728 14.0133C34.1501 14.236 33.8858 14.4125 33.5948 14.5328C33.3039 14.6531 32.9921 14.7148 32.6772 14.7144Z" fill="url(#paint0_linear_48_74)"/>
<defs>
<linearGradient id="paint0_linear_48_74" x1="41.7283" y1="13.3656" x2="5.02544" y2="32.635" gradientUnits="userSpaceOnUse">
<stop stop-color="#492BFF"/>
<stop offset="1" stop-color="#FA12E3"/>
</linearGradient>
</defs>
</svg>
