<svg width="45" height="45" viewBox="0 0 45 45" fill="none" xmlns="http://www.w3.org/2000/svg">
<path d="M22 3C10.9516 3 2 11.9516 2 23C2 34.0484 10.9516 43 22 43C33.0484 43 42 34.0484 42 23C42 11.9516 33.0484 3 22 3ZM31.8226 16.7016L28.5403 32.1694C28.2984 33.2661 27.6452 33.5323 26.7339 33.0161L21.7339 29.3306L19.3226 31.6532C19.0565 31.9194 18.8306 32.1452 18.3145 32.1452L18.6694 27.0564L27.9355 18.6855C28.3387 18.3306 27.8468 18.129 27.3145 18.4839L15.8629 25.6935L10.9274 24.1532C9.85484 23.8145 9.83064 23.0806 11.1532 22.5645L30.4355 15.129C31.3306 14.8065 32.1129 15.3468 31.8226 16.7016Z" fill="url(#paint0_linear_48_77)"/>
<defs>
<linearGradient id="paint0_linear_48_77" x1="41.7276" y1="13.3656" x2="5.02509" y2="32.6344" gradientUnits="userSpaceOnUse">
<stop stop-color="#492BFF"/>
<stop offset="1" stop-color="#FA12E3"/>
</linearGradient>
</defs>
</svg>
