<svg width="45" height="45" viewBox="0 0 45 45" fill="none" xmlns="http://www.w3.org/2000/svg">
<path d="M22.857 2.8125C12.1821 2.8125 3.5274 11.3995 3.5274 21.993C3.5274 25.6168 4.54096 29.0058 6.30114 31.8972L2.8125 42.1875L13.5144 38.7877C16.2837 40.3069 19.4686 41.1736 22.857 41.1736C33.5334 41.1736 42.1875 32.5854 42.1875 21.993C42.1875 11.3995 33.5334 2.8125 22.857 2.8125ZM32.4689 29.2772C32.0142 30.4046 29.9575 31.4335 29.05 31.4808C28.1435 31.5289 28.1177 32.1834 23.1754 30.0364C18.2338 27.8889 15.2607 22.6673 15.0263 22.3311C14.7917 21.996 13.1121 19.6023 13.2027 17.1934C13.2939 14.7841 14.613 13.6474 15.0839 13.1746C15.5542 12.7012 16.0934 12.6163 16.4226 12.611C16.8118 12.6047 17.0639 12.5994 17.3519 12.61C17.6396 12.6209 18.0719 12.5498 18.4461 13.5451C18.8202 14.5403 19.7155 16.9863 19.8301 17.2355C19.9445 17.485 20.0153 17.7739 19.839 18.0943C19.6622 18.4154 19.5717 18.6159 19.3151 18.8926C19.0571 19.1693 18.7725 19.5115 18.5424 19.7231C18.2857 19.9573 18.0177 20.2128 18.2875 20.7135C18.5571 21.2139 19.4875 22.8542 20.9048 24.206C22.7263 25.9436 24.2972 26.52 24.7806 26.7826C25.2653 27.0467 25.5546 27.0173 25.8551 26.701C26.1543 26.3847 27.1418 25.3171 27.4895 24.8404C27.8372 24.3625 28.1629 24.4561 28.6095 24.6357C29.0558 24.8161 31.4358 26.0909 31.9206 26.3541C32.4048 26.6168 32.7285 26.7521 32.8443 26.9605C32.96 27.1697 32.9235 28.1498 32.4689 29.2772Z" fill="url(#paint0_linear_48_80)"/>
<defs>
<linearGradient id="paint0_linear_48_80" x1="41.9194" y1="13.0161" x2="5.79032" y2="31.9839" gradientUnits="userSpaceOnUse">
<stop stop-color="#492BFF"/>
<stop offset="1" stop-color="#FA12E3"/>
</linearGradient>
</defs>
</svg>
